<?xml version="1.0" encoding="utf-8"?>
<!-- Svg Vector Icons : http://www.onlinewebfonts.com/icon -->
<!DOCTYPE svg PUBLIC "-//W3C//DTD SVG 1.1//EN" "http://www.w3.org/Graphics/SVG/1.1/DTD/svg11.dtd">
<svg version="1.1" xmlns="http://www.w3.org/2000/svg" xmlns:xlink="http://www.w3.org/1999/xlink" x="0px" y="0px" viewBox="0 0 256 256" enable-background="new 0 0 256 256" xml:space="preserve">
<metadata> Svg Vector Icons : http://www.onlinewebfonts.com/icon </metadata>
<g><g><path fill="#000000" d="M123,90.1c4.3,2.3,9.1,2.4,12.4,0.3c3-1.9,2.3-4.2-2.2-6.7c-15.1-8.7-17-19.6-5.2-30c3.2-2.9,6.6-5.6,9.6-8.6c5.3-5.2,9.1-10.7,9.3-15.3c0-7.7-8.3-18.5-16.2-22.6c-2.9-1.5-7.7-1.5-10.5,0c-3,1.6-3.2,3.5-0.7,5.7c2.1,1.8,4.2,3.6,6.3,5.5c6.8,6,7.6,12.3,1.9,18.6c-3.7,4.1-8,8-12.5,11.8C99,62.6,102.1,79,123,90.1L123,90.1z M183.8,90.7c3.7,1.9,8.6,1.5,11.4-0.5c2.6-1.9,2-4-1.6-6c-16.8-9.6-18.3-20.4-4.9-31.8c4.6-3.9,9-7.9,12.5-12.1c10.9-13.5,4.2-21.7-10.9-33c-2.5-1.9-7.8-1.7-10.8-0.1c-2.8,1.5-3,3.5-0.5,5.8c2.1,1.8,4.2,3.6,6.3,5.5c6.6,5.8,7.5,12,2.1,18.2c-3.7,4.2-8.1,8.2-12.6,12.1c-6.3,5.6-10.4,11.5-10.6,19.1C164.9,76.7,171.7,84.5,183.8,90.7L183.8,90.7z M61,88.8c1.4,0.9,3,1.7,4.7,2.4c3.4,1.3,8,0.9,10.4-0.9c2.3-1.7,1.8-4-1.4-5.9c-0.9-0.5-1.8-1-2.6-1.5c-13.5-8.5-15-19-4.1-28.8c3.8-3.4,7.8-6.7,11.3-10.3c4.7-4.8,8.1-9.9,8-15.6c0-8.5-8.1-14.8-16.3-21c-2.4-1.8-7.6-1.5-10.5,0c-2.8,1.5-3.1,3.6-0.6,5.8c2.1,1.8,4.2,3.7,6.3,5.5c6.9,6,7.5,12.3,1.8,18.6c-3.7,4.1-8,8-12.5,11.8C40.1,62,42.1,77.4,61,88.8L61,88.8z M227.5,126.8h-6.3v-2.5c0-14.9-12.1-26.9-26.9-26.9c-14.8,0-26.9,12.1-26.9,26.9v2.5H155v-2.5c0-14.9-12.1-26.9-26.9-26.9c-14.8,0-26.9,12.1-26.9,26.9v2.5H88.7v-2.5c0-14.9-12.1-26.9-26.9-26.9c-14.8,0-26.9,12.1-26.9,26.9v2.5h-6.3c-10.3,0-18.5,8.9-18.5,19.9s8.3,19.9,18.5,19.9l8.5,0.6v54.1c0,14.9,9.8,28.6,24.7,28.6c20.6,0,29.4-13.7,29.4-28.6v-54.1l10,0.1v55.6c0,14.9,12.1,26.9,26.9,26.9c14.8,0,26.9-12.1,26.9-26.9v-56.3l9.6,0.2l0.4,54.5c0,14.9,14.5,28.6,29.4,28.6c14.8,0,29.6-13.7,29.6-28.6v-54.1l3.6-0.6c10.3,0,18.5-8.9,18.5-19.9C246.1,135.8,237.8,126.8,227.5,126.8L227.5,126.8z M34.9,150.8h-6.3c-2.1,0-3.8-1.8-3.8-4.1c0-2.2,1.7-4.1,3.8-4.1h6.3V150.8L34.9,150.8z M76.5,221.4c0,6.7-5.1,13.9-14.6,13.9c-6.7,0-10-7.1-10-13.9v-98.3c0-6.7,6-9.8,14.7-9.8c4.7,0,9.8,3.1,9.8,9.8V221.4L76.5,221.4z M101,152.6h-9.8v-9.8l10,0L101,152.6L101,152.6z M140.4,167.3h-0.1v55.8c0,6.7-5.5,12.2-12.2,12.2c-6.7,0-12.2-5.5-12.2-12.2v-55.8h-0.1V128l0.1-3.7c0-6.7,5.5-12.2,12.2-12.2c6.7,0,12.2,5.5,12.2,12.2l0.1,3.7V167.3L140.4,167.3z M165,152.6h-9.8l-0.1-9.9l10,0V152.6L165,152.6z M209.2,221.4c0,6.7-8.2,13.9-14.9,13.9c-6.7,0-14.6-2.2-14.6-8.9V123.1c0-6.7,7.9-11,14.6-11c6.7,0,14.9,4.3,14.9,11V221.4L209.2,221.4z M228.9,152.6H224v-9.8h4.9c2.1,0,4.9,2.7,4.9,4.9C233.8,149.9,231,152.6,228.9,152.6L228.9,152.6z"/></g></g>
</svg>