<?xml version="1.0" encoding="utf-8"?>
<!-- Svg Vector Icons : http://www.onlinewebfonts.com/icon -->
<!DOCTYPE svg PUBLIC "-//W3C//DTD SVG 1.1//EN" "http://www.w3.org/Graphics/SVG/1.1/DTD/svg11.dtd">
<svg version="1.1" xmlns="http://www.w3.org/2000/svg" xmlns:xlink="http://www.w3.org/1999/xlink" x="0px" y="0px" viewBox="0 0 256 256" enable-background="new 0 0 256 256" xml:space="preserve">
<metadata> Svg Vector Icons : http://www.onlinewebfonts.com/icon </metadata>
<g><g><path fill="#000000" d="M215.5,59.5v49.3h-58.7c-5.1-8-12.7-14.2-21.7-17.5V74.1h28.3c8.1,0,14.6-6.6,14.6-14.6s-6.5-14.6-14.6-14.6H77.6c-8.1,0-14.6,6.6-14.6,14.6s6.5,14.6,14.6,14.6h28.3v17.2c-9,3.3-16.6,9.5-21.7,17.5h-23C33,108.8,10,131.8,10,160v43.8h65.7v-29.2h139.7v36.5H246V59.5H215.5L215.5,59.5z"/></g></g>
</svg>